<svg viewBox="0 0 144 20" fill="none" xmlns="http://www.w3.org/2000/svg">
<path d="M136.695 16.6307C134.072 16.6307 132.568 15.485 132.5 13.4437L134.737 12.9912C134.718 14.3102 135.412 15.0516 136.685 15.0516C137.678 15.0516 138.228 14.6665 138.228 13.9059C138.228 13.1548 137.736 12.8082 136.444 12.3269L135.152 11.8358C133.86 11.3448 132.751 10.4012 132.751 8.99547C132.751 7.1276 134.053 6.07812 136.415 6.07812C138.894 6.07812 140.263 7.11796 140.273 8.99547L138.083 9.3806C138.132 8.1867 137.534 7.65714 136.444 7.65714C135.489 7.65714 134.959 8.01339 134.959 8.65849C134.959 9.31321 135.422 9.72721 136.714 10.1894L138.006 10.6612C139.299 11.1329 140.581 11.8647 140.581 13.6844C140.581 15.5234 139.154 16.6307 136.695 16.6307Z" fill="#0059FF"/>
<path d="M129.256 12.8947L131.512 13.1836C131.165 15.4845 129.7 16.6303 127.269 16.6303C124.482 16.6303 122.949 14.9165 122.949 11.7971V10.9015C122.949 7.78204 124.492 6.05859 127.337 6.05859C129.989 6.05859 131.464 7.6954 131.464 10.6127C131.464 11.0652 131.445 11.4889 131.397 11.98H125.283V12.1725C125.283 14.1077 125.996 15.0417 127.346 15.0417C128.436 15.0417 129.073 14.4255 129.256 12.8947ZM127.318 7.64725C126.006 7.64725 125.331 8.5523 125.283 10.3721H129.13V10.1121C129.13 8.42714 128.523 7.64725 127.318 7.64725Z" fill="#0059FF"/>
<path d="M119.877 16.6204C118.045 16.6204 117.1 15.696 117.1 13.7127V7.99348V6.28928V3.99777L119.453 3.29492V6.28928H122.104V7.99348H119.453V13.4335C119.453 14.3963 119.848 14.7717 120.648 14.7717C121.082 14.7717 121.622 14.6562 122.133 14.4347L121.998 16.1485C121.468 16.4277 120.648 16.6204 119.877 16.6204Z" fill="#0059FF"/>
<path d="M108.146 19.9996L107.847 17.997L109.158 17.8718C110.286 17.7659 110.663 17.477 110.788 16.9956L110.913 16.5143L107.615 6.28906H110.036L111.463 11.7289C111.694 12.5858 111.858 13.4333 112.003 14.4442H112.205C112.35 13.4333 112.514 12.6052 112.745 11.7483L114.134 6.28906H116.429L113.536 15.9076C112.649 18.9117 111.521 19.807 108.146 19.9996Z" fill="#0059FF"/>
<path d="M103.888 16.5727C102.181 16.5727 101.168 15.6099 100.628 13.9058L100.426 13.9827C100.744 15.09 100.898 15.8988 100.917 16.3994H98.5742V2.91992H100.927V5.66396C100.927 6.61716 100.782 7.47406 100.426 8.70647L100.628 8.7835C101.159 7.14671 102.171 6.11648 103.888 6.11648C106.048 6.11648 107.186 7.83994 107.186 11.1328V11.5565C107.186 14.8493 106.048 16.5727 103.888 16.5727ZM102.962 14.9938C104.196 14.9938 104.813 13.9346 104.813 11.7202V10.9788C104.813 8.75462 104.196 7.68589 102.962 7.68589C101.641 7.68589 100.927 8.87016 100.927 11.075V11.6238C100.927 13.819 101.641 14.9938 102.962 14.9938Z" fill="#0059FF"/>
<path d="M94.7793 12.8947L97.0359 13.1836C96.6887 15.4845 95.2228 16.6303 92.7927 16.6303C90.0059 16.6303 88.4727 14.9165 88.4727 11.7971V10.9015C88.4727 7.78204 90.0155 6.05859 92.8602 6.05859C95.5121 6.05859 96.9875 7.6954 96.9875 10.6127C96.9875 11.0652 96.9684 11.4889 96.9202 11.98H90.8062V12.1725C90.8062 14.1077 91.5199 15.0417 92.8699 15.0417C93.9596 15.0417 94.596 14.4255 94.7793 12.8947ZM92.8411 7.64725C91.5294 7.64725 90.8544 8.5523 90.8062 10.3721H94.6539V10.1121C94.6539 8.42714 94.0465 7.64725 92.8411 7.64725Z" fill="#0059FF"/>
<path d="M84.3119 16.4H81.959V6.2904H84.3216C84.3408 7.00287 84.2444 7.51317 83.7718 8.87076L83.9648 8.9574C84.8712 6.81994 85.7585 6.11708 87.5519 5.97266L87.8894 8.09087C84.9772 8.21604 84.3119 9.04405 84.3119 11.9807V16.4Z" fill="#0059FF"/>
<path d="M74.4987 16.6303C72.8593 16.6303 71.9238 15.6868 71.9238 14.0886V14.0499C71.9238 11.874 73.6115 11.0845 75.5594 10.5935L77.4976 10.1024V9.25517C77.4976 8.14792 77.0444 7.64725 76.032 7.64725C74.8554 7.64725 74.3155 8.39825 74.4312 10.0158L72.1458 9.76547C72.001 7.43543 73.3994 6.05859 76.0801 6.05859C78.5488 6.05859 79.8121 7.12733 79.8121 9.21665V14.127C79.8121 14.8587 79.9278 14.9646 80.8151 15.0033L80.5064 16.5822C80.3713 16.6112 80.1496 16.6303 79.9663 16.6303C78.1246 16.6303 77.7003 15.8889 78.0762 14.0405L77.8835 14.0018C77.4109 15.7156 76.2731 16.6303 74.4987 16.6303ZM75.357 14.9262C76.5912 14.9262 77.4976 13.8766 77.4976 12.3748V11.6912L76.2922 12.0282C75.0965 12.3651 74.277 12.8561 74.277 13.8382V13.8766C74.277 14.5604 74.653 14.9262 75.357 14.9262Z" fill="#0059FF"/>
<path d="M62.9504 16.3987H60.337L57.6562 6.28906H60.0574L61.2049 11.2861C61.4267 12.2585 61.5618 12.9999 61.6966 13.9723H61.8896C62.0247 12.9999 62.1692 12.2585 62.391 11.2861L63.5097 6.28906H65.6987L66.8751 11.2958C67.1065 12.2585 67.2416 12.9999 67.3767 13.9723H67.5694C67.7045 12.9999 67.8396 12.2682 68.0517 11.2958L69.151 6.28906H71.4653L68.8039 16.3987H66.1616L65.0911 11.6231C64.9272 10.8914 64.7923 10.1116 64.6572 8.91758H64.4643C64.3294 10.1116 64.1943 10.8914 64.0304 11.6231L62.9504 16.3987Z" fill="#0059FF"/>
<path d="M56.6303 16.3994H54.2773V2.91992H56.6303V16.3994Z" fill="#0059FF"/>
<path d="M46.8169 16.6303C45.1776 16.6303 44.2422 15.6868 44.2422 14.0886V14.0499C44.2422 11.874 45.9298 11.0845 47.8778 10.5935L49.816 10.1024V9.25517C49.816 8.14792 49.3628 7.64725 48.3503 7.64725C47.1737 7.64725 46.6336 8.39825 46.7494 10.0158L44.464 9.76547C44.3194 7.43543 45.7175 6.05859 48.3985 6.05859C50.8672 6.05859 52.1304 7.12733 52.1304 9.21665V14.127C52.1304 14.8587 52.2462 14.9646 53.1332 15.0033L52.8248 16.5822C52.6897 16.6112 52.4679 16.6303 52.2847 16.6303C50.4428 16.6303 50.0186 15.8889 50.3946 14.0405L50.2017 14.0018C49.7293 15.7156 48.5912 16.6303 46.8169 16.6303ZM47.6751 14.9262C48.9096 14.9262 49.816 13.8766 49.816 12.3748V11.6912L48.6106 12.0282C47.4149 12.3651 46.5951 12.8561 46.5951 13.8382V13.8766C46.5951 14.5604 46.9713 14.9262 47.6751 14.9262Z" fill="#0059FF"/>
<path d="M32.5025 16.3994H30.2266V2.91992H33.216L35.5207 9.77521C35.8488 10.7381 36.1187 11.7298 36.3693 12.9237H36.5622C36.8227 11.7298 37.0927 10.7284 37.4011 9.77521L39.6771 2.91992H42.6665V16.3994H40.3327V9.37083C40.3327 8.4369 40.3617 7.57998 40.4774 6.44384L40.2845 6.4246L37.2275 16.3994H35.6268L32.57 6.41496L32.3674 6.43422C32.4638 7.57998 32.5025 8.4369 32.5025 9.37083V16.3994Z" fill="#0059FF"/>
<path d="M142.767 7.71498H142.49V6.0791H142.853L143.133 6.91106C143.173 7.02792 143.205 7.14828 143.236 7.29316H143.259C143.291 7.14828 143.324 7.02674 143.361 6.91106L143.637 6.0791H144V7.71498H143.717V6.86199C143.717 6.74865 143.72 6.64465 143.734 6.50676L143.711 6.50444L143.34 7.71498H143.146L142.775 6.50326L142.75 6.5056C142.762 6.64464 142.767 6.74865 142.767 6.86199V7.71498Z" fill="#0059FF"/>
<path d="M141.897 7.71498H141.605V6.31397H141.182V6.0791H142.321V6.31397H141.897V7.71498Z" fill="#0059FF"/>
<path d="M20.0368 0.852543C19.2011 0.067274 19.0931 0 18.9333 0C18.8719 0 18.7967 0.0249024 18.7256 0.0975004C18.6547 0.170098 12.0838 6.90087 12.0838 6.90087C12.025 6.95955 11.9497 6.99303 11.8743 6.99303C11.7988 6.99303 11.7234 6.95955 11.6648 6.90087C11.6648 6.90087 5.0938 0.170098 5.02287 0.0975004C4.95193 0.0249024 4.87626 0 4.81512 0C4.65544 0 4.54742 0.067274 3.71165 0.852543C2.17962 2.29151 0 5.74816 0 9.39269C0 10.4355 -0.000592108 16.3478 6.4252 19.2882C6.71873 19.4223 7.0078 19.1056 6.7772 18.8698C5.73458 17.8021 4.91633 15.8222 4.91633 14.1159C4.91633 12.6763 5.3523 11.3287 6.09813 10.207C6.20706 10.0144 6.37474 9.9809 6.56766 10.1734C6.56766 10.1734 11.5741 15.2303 11.6582 15.315C11.7422 15.4002 11.8054 15.4128 11.8739 15.4128C11.9426 15.4128 12.0058 15.3998 12.0897 15.315C12.1737 15.2301 17.1803 10.1734 17.1803 10.1734C17.3732 9.9809 17.5409 10.0144 17.6497 10.207C18.396 11.3287 18.8316 12.6759 18.8316 14.1159C18.8316 15.8224 18.0133 17.8021 16.9708 18.8698C16.7401 19.106 17.0294 19.4223 17.3227 19.2882C23.7486 16.3478 23.748 10.4351 23.748 9.39269C23.748 5.74816 21.5685 2.29181 20.0368 0.852543Z" fill="#0059FF"/>
</svg>
