<svg viewBox="0 0 24 20" fill="none" xmlns="http://www.w3.org/2000/svg">
<path d="M20.0368 0.852543C19.2011 0.067274 19.0931 0 18.9333 0C18.8719 0 18.7967 0.0249024 18.7256 0.0975004C18.6547 0.170098 12.0838 6.90087 12.0838 6.90087C12.025 6.95955 11.9497 6.99303 11.8743 6.99303C11.7988 6.99303 11.7234 6.95955 11.6648 6.90087C11.6648 6.90087 5.0938 0.170098 5.02287 0.0975004C4.95193 0.0249024 4.87626 0 4.81512 0C4.65544 0 4.54742 0.067274 3.71165 0.852543C2.17962 2.29151 0 5.74816 0 9.39269C0 10.4355 -0.000592108 16.3478 6.4252 19.2882C6.71873 19.4223 7.0078 19.1056 6.7772 18.8698C5.73458 17.8021 4.91633 15.8222 4.91633 14.1159C4.91633 12.6763 5.3523 11.3287 6.09813 10.207C6.20706 10.0144 6.37474 9.9809 6.56766 10.1734C6.56766 10.1734 11.5741 15.2303 11.6582 15.315C11.7422 15.4002 11.8054 15.4128 11.8739 15.4128C11.9426 15.4128 12.0058 15.3998 12.0897 15.315C12.1737 15.2301 17.1803 10.1734 17.1803 10.1734C17.3732 9.9809 17.5409 10.0144 17.6497 10.207C18.396 11.3287 18.8316 12.6759 18.8316 14.1159C18.8316 15.8224 18.0133 17.8021 16.9708 18.8698C16.7401 19.106 17.0294 19.4223 17.3227 19.2882C23.7486 16.3478 23.748 10.4351 23.748 9.39269C23.748 5.74816 21.5685 2.29181 20.0368 0.852543Z" fill="#001B4D"/>
</svg>
