<svg viewBox="0 0 152 21" fill="none" xmlns="http://www.w3.org/2000/svg">
<path d="M143.433 17.4601C140.681 17.4601 139.102 16.2571 139.031 14.1137L141.379 13.6386C141.358 15.0236 142.087 15.802 143.423 15.802C144.465 15.802 145.042 15.3977 145.042 14.599C145.042 13.8104 144.526 13.4465 143.17 12.9411L141.814 12.4254C140.458 11.9099 139.294 10.9191 139.294 9.4431C139.294 7.48183 140.66 6.37988 143.139 6.37988C145.74 6.37988 147.177 7.47171 147.187 9.4431L144.89 9.84749C144.941 8.59389 144.313 8.03785 143.17 8.03785C142.168 8.03785 141.611 8.41191 141.611 9.08926C141.611 9.77672 142.097 10.2114 143.453 10.6967L144.809 11.1921C146.165 11.6873 147.511 12.4558 147.511 14.3665C147.511 16.2975 146.013 17.4601 143.433 17.4601Z" fill="#3B8DFF"/>
<path d="M135.629 13.5393L137.997 13.8426C137.633 16.2586 136.095 17.4616 133.545 17.4616C130.621 17.4616 129.012 15.6621 129.012 12.3867V11.4464C129.012 8.17094 130.631 6.36133 133.616 6.36133C136.398 6.36133 137.947 8.07998 137.947 11.1431C137.947 11.6182 137.926 12.0631 137.876 12.5788H131.46V12.7809C131.46 14.8129 132.209 15.7936 133.626 15.7936C134.769 15.7936 135.437 15.1466 135.629 13.5393ZM133.596 8.02942C132.219 8.02942 131.511 8.97972 131.46 10.8905H135.498V10.6175C135.498 8.8483 134.86 8.02942 133.596 8.02942Z" fill="#3B8DFF"/>
<path d="M125.785 17.4487C123.863 17.4487 122.871 16.4782 122.871 14.3957V8.39052V6.60111V4.19503L125.34 3.45703V6.60111H128.123V8.39052H125.34V14.1025C125.34 15.1135 125.755 15.5076 126.595 15.5076C127.05 15.5076 127.617 15.3863 128.153 15.1538L128.011 16.9533C127.455 17.2465 126.595 17.4487 125.785 17.4487Z" fill="#3B8DFF"/>
<path d="M113.475 21.0006L113.161 18.8978L114.537 18.7663C115.721 18.6552 116.115 18.3519 116.247 17.8463L116.378 17.341L112.918 6.60449H115.458L116.955 12.3164C117.198 13.2161 117.37 14.1059 117.522 15.1674H117.734C117.886 14.1059 118.058 13.2364 118.301 12.3367L119.758 6.60449H122.166L119.131 16.7039C118.2 19.8582 117.016 20.7983 113.475 21.0006Z" fill="#3B8DFF"/>
<path d="M109.009 17.4009C107.218 17.4009 106.156 16.39 105.589 14.6006L105.376 14.6813C105.71 15.844 105.872 16.6932 105.892 17.2189H103.434V3.06543H105.903V5.94667C105.903 6.94752 105.751 7.84727 105.376 9.1413L105.589 9.22219C106.145 7.50356 107.208 6.42182 109.009 6.42182C111.276 6.42182 112.47 8.23145 112.47 11.689V12.1339C112.47 15.5912 111.276 17.4009 109.009 17.4009ZM108.037 15.743C109.333 15.743 109.98 14.6308 109.98 12.3057V11.5273C109.98 9.19186 109.333 8.0697 108.037 8.0697C106.651 8.0697 105.903 9.31318 105.903 11.6283V12.2045C105.903 14.5095 106.651 15.743 108.037 15.743Z" fill="#3B8DFF"/>
<path d="M99.4535 13.5393L101.821 13.8426C101.457 16.2586 99.9189 17.4616 97.369 17.4616C94.4448 17.4616 92.8359 15.6621 92.8359 12.3867V11.4464C92.8359 8.17094 94.4549 6.36133 97.4398 6.36133C100.223 6.36133 101.771 8.07998 101.771 11.1431C101.771 11.6182 101.751 12.0631 101.7 12.5788H95.2846V12.7809C95.2846 14.8129 96.0335 15.7936 97.45 15.7936C98.5934 15.7936 99.2612 15.1466 99.4535 13.5393ZM97.4197 8.02942C96.0434 8.02942 95.3351 8.97972 95.2846 10.8905H99.322V10.6175C99.322 8.8483 98.6846 8.02942 97.4197 8.02942Z" fill="#3B8DFF"/>
<path d="M88.469 17.2173H86V6.60218H88.4791C88.4992 7.35028 88.3981 7.88609 87.9022 9.31156L88.1047 9.40253C89.0558 7.1582 89.9868 6.4202 91.8687 6.26855L92.2229 8.49268C89.1671 8.6241 88.469 9.49352 88.469 12.577V17.2173Z" fill="#3B8DFF"/>
<path d="M78.1706 17.4616C76.4503 17.4616 75.4688 16.471 75.4688 14.7928V14.7522C75.4688 12.4675 77.2396 11.6385 79.2836 11.123L81.3174 10.6073V9.71774C81.3174 8.55513 80.8418 8.02942 79.7794 8.02942C78.5448 8.02942 77.9783 8.81797 78.0997 10.5164L75.7017 10.2535C75.5498 7.80701 77.0171 6.36133 79.83 6.36133C82.4204 6.36133 83.7459 7.48351 83.7459 9.67728V14.8332C83.7459 15.6015 83.8674 15.7126 84.7984 15.7532L84.4745 17.4111C84.3328 17.4415 84.1001 17.4616 83.9078 17.4616C81.9753 17.4616 81.53 16.6832 81.9245 14.7423L81.7223 14.7017C81.2264 16.5012 80.0324 17.4616 78.1706 17.4616ZM79.0712 15.6723C80.3663 15.6723 81.3174 14.5703 81.3174 12.9933V12.2756L80.0525 12.6294C78.7979 12.9832 77.9379 13.4987 77.9379 14.5299V14.5703C77.9379 15.2882 78.3324 15.6723 79.0712 15.6723Z" fill="#3B8DFF"/>
<path d="M66.0513 17.2196H63.309L60.4961 6.60449H63.0156L64.2197 11.8514C64.4524 12.8724 64.5942 13.6509 64.7357 14.6719H64.9381C65.0799 13.6509 65.2316 12.8724 65.4643 11.8514L66.6381 6.60449H68.9351L70.1695 11.8615C70.4123 12.8724 70.5541 13.6509 70.6958 14.6719H70.8981C71.0398 13.6509 71.1815 12.8826 71.4041 11.8615L72.5576 6.60449H74.986L72.1933 17.2196H69.4208L68.2975 12.2052C68.1255 11.4369 67.984 10.6181 67.8423 9.36443H67.6398C67.4983 10.6181 67.3565 11.4369 67.1846 12.2052L66.0513 17.2196Z" fill="#3B8DFF"/>
<path d="M59.4221 17.2189H56.9531V3.06543H59.4221V17.2189Z" fill="#3B8DFF"/>
<path d="M49.1274 17.4616C47.4074 17.4616 46.4258 16.471 46.4258 14.7928V14.7522C46.4258 12.4675 48.1966 11.6385 50.2406 11.123L52.2744 10.6073V9.71774C52.2744 8.55513 51.7989 8.02942 50.7365 8.02942C49.5019 8.02942 48.9352 8.81797 49.0566 10.5164L46.6585 10.2535C46.5068 7.80701 47.9739 6.36133 50.787 6.36133C53.3774 6.36133 54.703 7.48351 54.703 9.67728V14.8332C54.703 15.6015 54.8244 15.7126 55.7552 15.7532L55.4315 17.4111C55.2898 17.4415 55.0571 17.4616 54.8648 17.4616C52.9321 17.4616 52.487 16.6832 52.8815 14.7423L52.6791 14.7017C52.1834 16.5012 50.9893 17.4616 49.1274 17.4616ZM50.028 15.6723C51.3233 15.6723 52.2744 14.5703 52.2744 12.9933V12.2756L51.0096 12.6294C49.7549 12.9832 48.8947 13.4987 48.8947 14.5299V14.5703C48.8947 15.2882 49.2895 15.6723 50.028 15.6723Z" fill="#3B8DFF"/>
<path d="M34.103 17.2189H31.7148V3.06543H34.8517L37.2701 10.2635C37.6142 11.2745 37.8975 12.3158 38.1605 13.5694H38.3629C38.6362 12.3158 38.9195 11.2643 39.2431 10.2635L41.6313 3.06543H44.7681V17.2189H42.3192V9.83888C42.3192 8.85825 42.3497 7.95849 42.4711 6.76555L42.2687 6.74534L39.061 17.2189H37.3813L34.1739 6.73522L33.9613 6.75544C34.0624 7.95849 34.103 8.85825 34.103 9.83888V17.2189Z" fill="#3B8DFF"/>
<path d="M149.806 8.09642H149.516V6.37988H149.896L150.19 7.25286C150.232 7.37549 150.266 7.50177 150.298 7.6538H150.323C150.356 7.50177 150.39 7.37425 150.429 7.25286L150.719 6.37988H151.1V8.09642H150.803V7.20137C150.803 7.08245 150.806 6.97331 150.821 6.82863L150.796 6.82619L150.407 8.09642H150.203L149.814 6.82495L149.788 6.82741C149.801 6.97331 149.806 7.08245 149.806 7.20137V8.09642Z" fill="#3B8DFF"/>
<path d="M148.891 8.09642H148.585V6.62633H148.141V6.37988H149.336V6.62633H148.891V8.09642Z" fill="#3B8DFF"/>
<path d="M21.0247 0.896147C20.1478 0.0716143 20.0345 0.000976562 19.8668 0.000976562C19.8024 0.000976562 19.7234 0.0271241 19.6488 0.103352C19.5744 0.17958 12.6796 7.24689 12.6796 7.24689C12.6178 7.3085 12.5389 7.34366 12.4597 7.34366C12.3806 7.34366 12.3014 7.3085 12.2399 7.24689C12.2399 7.24689 5.34495 0.17958 5.27052 0.103352C5.19609 0.0271241 5.11668 0.000976562 5.05253 0.000976562C4.88497 0.000976562 4.77163 0.0716143 3.89466 0.896147C2.28709 2.40706 0 6.03654 0 9.8633C0 10.9582 -0.000621302 17.1662 6.74199 20.2536C7.04999 20.3944 7.35331 20.0619 7.11135 19.8143C6.01732 18.6932 5.15873 16.6143 5.15873 14.8226C5.15873 13.3111 5.61619 11.8961 6.3988 10.7183C6.5131 10.5161 6.68905 10.4809 6.89147 10.6831C6.89147 10.6831 12.1448 15.9928 12.233 16.0818C12.3211 16.1712 12.3874 16.1845 12.4593 16.1845C12.5314 16.1845 12.5977 16.1708 12.6858 16.0818C12.7739 15.9925 18.0274 10.6831 18.0274 10.6831C18.2298 10.4809 18.4058 10.5161 18.5199 10.7183C19.303 11.8961 19.7601 13.3107 19.7601 14.8226C19.7601 16.6145 18.9014 18.6932 17.8075 19.8143C17.5655 20.0623 17.8691 20.3944 18.1768 20.2536C24.9195 17.1662 24.9189 10.9578 24.9189 9.8633C24.9189 6.03654 22.6319 2.40737 21.0247 0.896147Z" fill="#3B8DFF"/>
</svg>
