<svg width="24" height="20" viewBox="0 0 24 20" fill="none" xmlns="http://www.w3.org/2000/svg">
<rect width="24" height="20" rx="10" fill="#FBBC2C" fill-opacity="0.3"/>
<g clip-path="url(#clip0_21246_9233)">
<path fill-rule="evenodd" clip-rule="evenodd" d="M14 3.33301C14.7364 3.33301 15.3333 3.92996 15.3333 4.66634V7.33301H16.6667C17.403 7.33301 18 7.92996 18 8.66634V15.333C18 16.0694 17.403 16.6663 16.6667 16.6663H7.33333C6.59695 16.6663 6 16.0694 6 15.333L6 8.66634C6 7.92996 6.59695 7.33301 7.33333 7.33301H8.66667V4.66634C8.66667 3.92996 9.26362 3.33301 10 3.33301L14 3.33301ZM16.6667 8.66634L7.33333 8.66634L7.33333 15.333L16.6667 15.333V8.66634ZM12 9.99967C12.7364 9.99967 13.3333 10.5966 13.3333 11.333C13.3333 11.8262 13.0655 12.2569 12.6674 12.4875L12.6667 13.333C12.6667 13.7012 12.3682 13.9997 12 13.9997C11.6318 13.9997 11.3333 13.7012 11.3333 13.333L11.3333 12.4879C10.9348 12.2574 10.6667 11.8265 10.6667 11.333C10.6667 10.5966 11.2636 9.99967 12 9.99967ZM13.3333 4.66634H10.6667C10.2985 4.66634 10 4.96482 10 5.33301V7.33301L14 7.33301V5.33301C14 4.96482 13.7015 4.66634 13.3333 4.66634Z" fill="white"/>
</g>
<defs>
<clipPath id="clip0_21246_9233">
<rect width="16" height="16" fill="white" transform="translate(4 2)"/>
</clipPath>
</defs>
</svg>
